<svg width="41" height="40" viewBox="0 0 41 40" fill="none" xmlns="http://www.w3.org/2000/svg">
<g clip-path="url(#clip0_479_341)">
<path d="M25.3283 1.66667C26.966 1.66658 28.5465 2.26935 29.7683 3.36001L30.0433 3.62001L36.8766 10.4533C38.0375 11.6119 38.7305 13.1576 38.8233 14.795L38.8333 15.1733V24.83C38.8334 26.4678 38.2306 28.0482 37.14 29.27L36.88 29.545L30.0466 36.3783C28.889 37.5384 27.3445 38.2314 25.7083 38.325L25.33 38.335H15.6716C14.0336 38.3348 12.4531 37.7314 11.2316 36.64L10.9566 36.38L4.12329 29.5467C2.96283 28.3886 2.2698 26.8435 2.17663 25.2067L2.16663 24.8283V15.1717C2.16654 13.5339 2.7693 11.9534 3.85996 10.7317L4.11996 10.4567L10.9533 3.62334C12.1118 2.46251 13.6576 1.76944 15.295 1.67667L15.6733 1.66667H25.3283ZM20.5 18.3333H18.8333L18.6383 18.345C18.2332 18.3932 17.8599 18.5883 17.589 18.8933C17.3181 19.1983 17.1685 19.5921 17.1685 20C17.1685 20.4079 17.3181 20.8017 17.589 21.1067C17.8599 21.4117 18.2332 21.6068 18.6383 21.655L18.8333 21.6667V26.6667L18.845 26.8617C18.8888 27.2337 19.0568 27.5801 19.3216 27.845C19.5865 28.1099 19.9329 28.2778 20.305 28.3217L20.5 28.3333H22.1666L22.3616 28.3217C22.7337 28.2778 23.0801 28.1099 23.3449 27.845C23.6098 27.5801 23.7778 27.2337 23.8216 26.8617L23.8333 26.6667L23.8216 26.4717C23.7818 26.1316 23.6382 25.8121 23.4104 25.5566C23.1825 25.301 22.8815 25.1218 22.5483 25.0433L22.3616 25.01L22.1666 25V20L22.155 19.805C22.1111 19.433 21.9432 19.0866 21.6783 18.8217C21.4134 18.5568 21.067 18.3889 20.695 18.345L20.5 18.3333ZM20.5166 13.3333L20.305 13.345C19.8999 13.3932 19.5265 13.5883 19.2556 13.8933C18.9848 14.1983 18.8351 14.5921 18.8351 15C18.8351 15.4079 18.9848 15.8017 19.2556 16.1067C19.5265 16.4117 19.8999 16.6068 20.305 16.655L20.5 16.6667L20.7116 16.655C21.1167 16.6068 21.4901 16.4117 21.7609 16.1067C22.0318 15.8017 22.1814 15.4079 22.1814 15C22.1814 14.5921 22.0318 14.1983 21.7609 13.8933C21.4901 13.5883 21.1167 13.3932 20.7116 13.345L20.5166 13.3333Z" fill="black"/>
</g>
<defs>
<clipPath id="clip0_479_341">
<rect width="40" height="40" fill="white" transform="translate(0.5)"/>
</clipPath>
</defs>
</svg>
