<svg width="27" height="32" viewBox="0 0 27 32" fill="none" xmlns="http://www.w3.org/2000/svg">
<path fill-rule="evenodd" clip-rule="evenodd" d="M10.5127 26.808C11.2034 27.5774 12.09 28 13.01 28H13.0114C13.9354 28 14.826 27.5774 15.518 26.8067C15.8887 26.3974 16.5207 26.364 16.93 26.7334C17.3407 27.1027 17.374 27.736 17.0047 28.1454C15.9274 29.3414 14.51 30 13.0114 30H13.0087C11.514 29.9987 10.0994 29.34 9.02604 28.144C8.6567 27.7347 8.69004 27.1014 9.1007 26.7334C9.51137 26.3627 10.1434 26.396 10.5127 26.808ZM13.0764 1.33337C19.0031 1.33337 22.9844 5.94937 22.9844 10.26C22.9844 12.4774 23.5484 13.4174 24.1471 14.4147C24.7391 15.3987 25.4098 16.516 25.4098 18.628C24.9444 24.024 19.3111 24.464 13.0764 24.464C6.84177 24.464 1.20711 24.024 0.747088 18.7134C0.743106 16.516 1.41377 15.3987 2.00577 14.4147L2.21476 14.0629C2.72934 13.1785 3.16844 12.2165 3.16844 10.26C3.16844 5.94937 7.14977 1.33337 13.0764 1.33337ZM13.0764 3.33337C8.41644 3.33337 5.16844 6.98404 5.16844 10.26C5.16844 13.032 4.39911 14.3134 3.71911 15.444C3.17377 16.352 2.74311 17.0694 2.74311 18.628C2.96577 21.1427 4.62577 22.464 13.0764 22.464C21.4804 22.464 23.1924 21.084 23.4138 18.5414C23.4098 17.0694 22.9791 16.352 22.4338 15.444C21.7538 14.3134 20.9844 13.032 20.9844 10.26C20.9844 6.98404 17.7364 3.33337 13.0764 3.33337Z" fill="#1C1C1C"/>
<circle cx="21.4102" cy="5.33337" r="4.5" fill="#4F4F4F" stroke="#F3F4F8"/>
</svg>
