<svg width="23" height="20" viewBox="0 0 20 20" fill="none" xmlns="http://www.w3.org/2000/svg">
<g clip-path="url(#clip0_592_38)">
<path d="M10 1.66663C10.8241 1.66663 11.6297 1.911 12.3149 2.36884C13.0001 2.82667 13.5342 3.47742 13.8495 4.23878C14.1649 5.00014 14.2474 5.83791 14.0866 6.64617C13.9259 7.45442 13.529 8.19685 12.9463 8.77957C12.3636 9.36229 11.6212 9.75913 10.8129 9.9199C10.0047 10.0807 9.16689 9.99816 8.40553 9.68279C7.64417 9.36742 6.99342 8.83337 6.53558 8.14817C6.07774 7.46296 5.83337 6.65738 5.83337 5.83329L5.83754 5.65246C5.88414 4.57975 6.34305 3.56644 7.11856 2.82384C7.89407 2.08124 8.92632 1.66669 10 1.66663Z" fill="#02343F"/>
<path d="M11.6666 11.6666C12.7717 11.6666 13.8315 12.1056 14.6129 12.887C15.3943 13.6684 15.8333 14.7282 15.8333 15.8333V16.6666C15.8333 17.1087 15.6577 17.5326 15.3451 17.8451C15.0326 18.1577 14.6087 18.3333 14.1666 18.3333H5.83329C5.39127 18.3333 4.96734 18.1577 4.65478 17.8451C4.34222 17.5326 4.16663 17.1087 4.16663 16.6666V15.8333C4.16663 14.7282 4.60561 13.6684 5.38701 12.887C6.16842 12.1056 7.22822 11.6666 8.33329 11.6666H11.6666Z" fill="#02343F"/>
</g>
<defs>
<clipPath id="clip0_592_38">
<rect width="20" height="20" fill="white"/>
</clipPath>
</defs>
</svg>
