<svg width="17" height="18" viewBox="0 0 17 18" fill="none" xmlns="http://www.w3.org/2000/svg">
<path fill-rule="evenodd" clip-rule="evenodd" d="M8.11583 0C12.5908 0 16.2308 3.64 16.2308 8.115C16.2308 10.2263 15.4206 12.1519 14.0947 13.5971L16.7037 16.2006C16.9478 16.4447 16.9487 16.8397 16.7045 17.0839C16.5828 17.2072 16.422 17.2681 16.262 17.2681C16.1028 17.2681 15.9428 17.2072 15.8203 17.0856L13.1799 14.4525C11.7909 15.5649 10.0297 16.2308 8.11583 16.2308C3.64083 16.2308 0 12.59 0 8.115C0 3.64 3.64083 0 8.11583 0ZM8.11583 1.25C4.33 1.25 1.25 4.32917 1.25 8.115C1.25 11.9008 4.33 14.9808 8.11583 14.9808C11.9008 14.9808 14.9808 11.9008 14.9808 8.115C14.9808 4.32917 11.9008 1.25 8.11583 1.25Z" fill="#64748B"/>
</svg>
