<svg width="18" height="18" viewBox="0 0 18 18" fill="none" xmlns="http://www.w3.org/2000/svg">
<path d="M6 0C6.53043 0 7.03914 0.210714 7.41421 0.585786C7.78929 0.960859 8 1.46957 8 2V8C8 8.53043 7.78929 9.03914 7.41421 9.41421C7.03914 9.78929 6.53043 10 6 10H2C1.46957 10 0.960859 9.78929 0.585786 9.41421C0.210714 9.03914 0 8.53043 0 8V2C0 1.46957 0.210714 0.960859 0.585786 0.585786C0.960859 0.210714 1.46957 0 2 0H6ZM6 12C6.53043 12 7.03914 12.2107 7.41421 12.5858C7.78929 12.9609 8 13.4696 8 14V16C8 16.5304 7.78929 17.0391 7.41421 17.4142C7.03914 17.7893 6.53043 18 6 18H2C1.46957 18 0.960859 17.7893 0.585786 17.4142C0.210714 17.0391 0 16.5304 0 16V14C0 13.4696 0.210714 12.9609 0.585786 12.5858C0.960859 12.2107 1.46957 12 2 12H6ZM16 8C16.5304 8 17.0391 8.21071 17.4142 8.58579C17.7893 8.96086 18 9.46957 18 10V16C18 16.5304 17.7893 17.0391 17.4142 17.4142C17.0391 17.7893 16.5304 18 16 18H12C11.4696 18 10.9609 17.7893 10.5858 17.4142C10.2107 17.0391 10 16.5304 10 16V10C10 9.46957 10.2107 8.96086 10.5858 8.58579C10.9609 8.21071 11.4696 8 12 8H16ZM16 0C16.5304 0 17.0391 0.210714 17.4142 0.585786C17.7893 0.960859 18 1.46957 18 2V4C18 4.53043 17.7893 5.03914 17.4142 5.41421C17.0391 5.78929 16.5304 6 16 6H12C11.4696 6 10.9609 5.78929 10.5858 5.41421C10.2107 5.03914 10 4.53043 10 4V2C10 1.46957 10.2107 0.960859 10.5858 0.585786C10.9609 0.210714 11.4696 0 12 0H16Z" fill="#AEAEAE"/>
</svg>
