  <svg width="100" height="100" viewBox="0 0 51 50" fill="none" xmlns="http://www.w3.org/2000/svg">
                  <g clip-path="url(#clip0_386_533)">
                    <path d="M6.75 14.5834C6.75 13.4783 7.18899 12.4185 7.97039 11.6371C8.75179 10.8557 9.8116 10.4167 10.9167 10.4167H40.0833C41.1884 10.4167 42.2482 10.8557 43.0296 11.6371C43.811 12.4185 44.25 13.4783 44.25 14.5834V35.4167C44.25 36.5218 43.811 37.5816 43.0296 38.363C42.2482 39.1444 41.1884 39.5834 40.0833 39.5834H10.9167C9.8116 39.5834 8.75179 39.1444 7.97039 38.363C7.18899 37.5816 6.75 36.5218 6.75 35.4167V14.5834Z" stroke="#02343F" stroke-width="2" stroke-linecap="round" stroke-linejoin="round"/>
                    <path d="M6.75 14.5833L25.5 27.0833L44.25 14.5833" stroke="#02343F" stroke-width="2" stroke-linecap="round" stroke-linejoin="round"/>
                  </g>
                  <defs>
                    <clipPath id="clip0_386_533">
                      <rect width="50" height="50" fill="white" transform="translate(0.5)"/>
                    </clipPath>
                  </defs>
                </svg>